<?xml version="1.0"?>
<svg xmlns="http://www.w3.org/2000/svg" xmlns:xlink="http://www.w3.org/1999/xlink" xmlns:svgjs="http://svgjs.com/svgjs" version="1.1" width="512" height="512" x="0" y="0" viewBox="0 0 512 512" style="enable-background:new 0 0 512 512" xml:space="preserve" class=""><g><g xmlns="http://www.w3.org/2000/svg"><path d="m495.891 115.104-98.995-98.995c-10.388-10.388-24.201-16.109-38.891-16.109-14.691 0-28.503 5.721-38.891 16.109l-14.142 14.142c-5.858 5.857-5.858 15.355 0 21.213l24.749 24.749-53.054 53.054c-23.052-8.447-47.78-10.591-72.136-6.175-27.83 5.047-53.111 18.285-73.111 38.285l-17.366 17.367c-5.858 5.858-5.857 15.355 0 21.213l63.64 63.64-119.537 119.536c-30.422 30.421-50.453 68.894-57.929 111.261-.851 4.82.704 9.752 4.165 13.213 2.837 2.837 6.664 4.393 10.606 4.393.867 0 1.739-.075 2.607-.229 42.366-7.476 80.84-27.507 111.261-57.929l119.536-119.536 63.64 63.64c2.929 2.93 6.768 4.394 10.606 4.394s7.678-1.465 10.606-4.394l17.367-17.366c20-20 33.238-45.281 38.285-73.111 4.417-24.354 2.273-49.083-6.175-72.136l53.054-53.053 24.749 24.749c2.929 2.929 6.768 4.394 10.606 4.394s7.678-1.465 10.606-4.394l14.142-14.142c10.39-10.389 16.111-24.2 16.111-38.892 0-14.69-5.721-28.503-16.109-38.891zm-388.237 317.526c-20.418 20.417-45.07 35.368-72.244 43.96 8.592-27.174 23.543-51.826 43.96-72.244l119.536-119.536 28.284 28.284zm221.756-73.263-6.761 6.76-176.776-176.776 6.76-6.761c31.118-31.117 78.615-40.232 118.973-23.07l80.875 80.875c17.159 40.357 8.047 87.854-23.071 118.972zm35.666-148.804-63.64-63.64 49.498-49.499 63.641 63.641zm109.602-38.89-3.535 3.535-134.351-134.351 3.535-3.535c9.748-9.748 25.607-9.748 35.355 0l98.995 98.995c9.748 9.748 9.748 25.608.001 35.356z" fill="#00000088" data-original="#000000" style="" class=""/></g></g></svg>
